<svg width="121" height="45" viewBox="0 0 121 45" fill="none" xmlns="http://www.w3.org/2000/svg">
<path d="M22.8642 27.9282C23.1081 28.4207 23.2205 28.6765 23.2791 28.8926C23.3346 29.0912 23.3346 29.3343 23.2871 29.4805C23.2031 29.7299 22.975 29.919 22.7058 29.9508C22.5442 29.973 22.3684 29.9571 22.199 29.8999C21.8378 29.7776 21.6319 29.5345 21.6414 29.2422C21.6462 29.1627 21.6383 29.1341 21.6145 29.1262C21.5907 29.1182 21.567 29.1357 21.5543 29.1738C21.5195 29.2771 21.5084 29.5266 21.5274 29.6997C21.5496 29.8999 21.0887 29.7919 21.217 30.0318C20.9129 29.8872 21.2787 30.0826 21.1093 30.0254C20.9255 29.9635 20.7782 29.9269 20.509 29.8793C20.7735 29.7808 20.9081 29.6886 21.0823 29.4821C21.1837 29.3581 21.3088 29.1659 21.3357 29.0849C21.3452 29.0547 21.3357 29.034 21.312 29.0261C21.2977 29.0213 21.2851 29.0261 21.274 29.0388C21.1805 29.1532 21.0744 29.2406 20.9429 29.3041C20.8036 29.3724 20.6135 29.3677 20.3807 29.2898C19.8754 29.1198 19.6268 28.7115 19.7693 28.2841C19.8501 28.0426 20.018 27.8726 20.3981 27.6406C20.5406 27.5548 20.9625 27.3478 21.6636 27.0194C21.9962 26.8621 22.0501 26.8335 22.2623 26.7128C22.3367 26.8701 22.4128 27.0194 22.4888 27.1735L22.8642 27.9282Z" fill="#0C3D0A"/>
<path d="M19.6964 21.0216C19.3828 19.3883 18.895 18.4143 17.9542 17.4674C16.5256 16.1248 14.4 15.3352 12.1367 15.3352C9.62782 15.3352 7.29478 16.3091 6.04036 17.89C4.71625 19.4963 4.01935 21.7349 4.01935 24.2882C4.01935 29.7918 7.50385 33.3984 12.7639 33.3984C16.6317 33.3984 19.7661 31.6078 21.1251 28.632L22.1356 28.9736C21.369 30.5004 20.4979 31.5538 19.2783 32.4499C17.5012 33.74 14.8546 34.4518 11.7882 34.4518C8.72184 34.4518 5.83129 33.5303 3.77543 31.8716C1.61504 30.1064 0.5 27.7105 0.5 24.787C0.5 21.101 2.2771 17.9679 5.41157 16.2297C7.18866 15.2033 9.66108 14.6234 11.9957 14.6234C13.3547 14.6234 14.8878 14.8347 16.4194 15.2033C18.0571 15.5989 18.4056 15.6514 18.998 15.6514C19.4858 15.6514 19.66 15.5989 20.8099 15.2828V21.0232H19.6949L19.6964 21.0216Z" fill="#0C3D0A"/>
<path d="M27.3211 29.8427C26.952 30.6847 26.7382 31.5014 26.7382 32.0019C26.7382 32.9504 27.5365 33.3714 29.3167 33.4239V34.0816H22.1355V33.4239C23.8857 33.4239 24.8978 32.5023 26.0635 29.8427L32.6001 14.992L34.5023 14.8077L41.0088 30.7118C41.8689 32.871 42.4517 33.3714 44.232 33.4239V34.0816H36.3143V33.4239C37.8791 33.3714 38.5238 33.0553 38.5238 32.291C38.5238 31.9749 38.4002 31.449 38.1547 30.7896L36.8654 27.4722H28.3031L27.3211 29.8427ZM32.7236 17.2831L28.7339 26.4998H36.4679L32.7236 17.2831Z" fill="#0C3D0A"/>
<path d="M72.4391 21.0089C72.1255 19.3756 71.6377 18.4016 70.6969 17.4547C69.2682 16.1121 67.1427 15.3225 64.8793 15.3225C62.3705 15.3225 60.0375 16.2964 58.783 17.8773C57.4589 19.4836 56.762 21.7222 56.762 24.2755C56.762 29.7791 60.2465 33.3857 65.5065 33.3857C69.3743 33.3857 72.5088 31.5951 73.8678 28.6193L74.8783 28.9609C74.1117 30.4877 73.2406 31.5411 72.021 32.4372C70.2439 33.7273 67.5972 34.4391 64.5309 34.4391C61.4645 34.4391 58.574 33.5176 56.5181 31.8589C54.3577 30.0953 53.2427 27.6978 53.2427 24.7759C53.2427 21.0899 55.0198 17.9568 58.1542 16.2186C59.9313 15.1922 62.4038 14.6123 64.7384 14.6123C66.0973 14.6123 67.6305 14.8236 69.1621 15.1922C70.7998 15.5878 71.1483 15.6403 71.7406 15.6403C72.2285 15.6403 72.4027 15.5878 73.5526 15.2717V21.012H72.4375L72.4391 21.0089Z" fill="#0C3D0A"/>
<path d="M82.4349 14.9921H76.2689V15.6244C78.8822 15.7039 79.1262 15.966 79.1262 18.5478V29.1595C79.1262 31.1868 78.9171 32.2132 78.4293 32.7137C77.9763 33.2142 77.2445 33.4239 75.9204 33.4239V34.0816H83.5847V33.4239C82.1909 33.3969 81.4592 33.1871 81.0411 32.7137C80.6578 32.2926 80.5532 31.7127 80.5532 29.606V16.9145L86.5434 23.8084V19.8014L82.4333 14.9937L82.4349 14.9921Z" fill="#0C3D0A"/>
<path d="M89.7302 14.9523V15.5846C91.1588 15.6371 91.9254 15.8484 92.3784 16.3218C92.7966 16.7429 92.9011 17.5071 92.9011 19.876V30.6974L86.5434 23.8067C86.5102 25.1223 86.5514 25.9818 86.5767 27.3101L92.3436 34.1197H94.3297V19.5058C94.3297 16.3981 94.8872 15.6879 97.5006 15.583V14.9507H89.7318L89.7302 14.9523Z" fill="#0C3D0A"/>
<path d="M99.8416 17.6247C101.932 15.6498 104.962 14.6234 108.726 14.6234C112.489 14.6234 115.484 15.6244 117.609 17.6247C119.526 19.4677 120.502 21.7588 120.502 24.5233C120.502 27.2878 119.526 29.6059 117.609 31.3965C115.449 33.4238 112.524 34.4248 108.726 34.4248C104.927 34.4248 101.897 33.3714 99.8416 31.3965C97.9251 29.5535 96.9495 27.2624 96.9495 24.5233C96.9495 21.7842 97.8903 19.4947 99.8416 17.6247ZM102.349 30.8436C103.743 32.7136 105.938 33.713 108.724 33.713C111.51 33.713 113.705 32.712 115.099 30.8436C116.353 29.1325 116.981 27.0781 116.981 24.5233C116.981 21.9685 116.353 19.9157 115.099 18.2046C113.705 16.3091 111.51 15.3352 108.724 15.3352C105.938 15.3352 103.743 16.3362 102.349 18.2046C101.094 19.9428 100.467 22.0225 100.467 24.5233C100.467 27.0241 101.094 29.0784 102.349 30.8436Z" fill="#0C3D0A"/>
<path d="M61.9 9.65039L61.8889 9.6774C61.9238 9.70123 61.9554 9.72506 61.9903 9.7489H62.2738C62.1503 9.72348 62.0251 9.6917 61.9 9.65039Z" fill="#0C3D0A"/>
<path d="M57.3101 0V1.46647C61.7623 1.71115 63.2701 2.50397 63.2701 4.64251C63.2701 5.80234 62.928 7.02414 61.9001 9.65045C62.0236 9.69176 62.1488 9.72353 62.2739 9.74895H64.7463C66.1053 6.49665 67.5323 4.26596 68.9578 3.11566C70.1916 2.07658 71.218 1.71115 73.5479 1.46647V0H57.3116H57.3101Z" fill="#0C3D0A"/>
<path d="M55.9891 38.5827H55.8354L55.8291 38.6002L44.3207 9.03875C43.2928 6.35207 42.8826 4.94597 42.8826 4.03082C42.8826 2.99332 43.4987 2.25929 44.5266 1.95424C45.4168 1.64919 45.8967 1.58722 48.0206 1.46489V0H30.0723V1.46647C32.4021 1.77153 32.8124 1.89386 33.5663 2.38322C35.1422 3.29996 36.1005 4.88719 37.6764 8.85763L51.8568 44.5265H55.9669L58.3965 38.5843H55.9906L55.9891 38.5827Z" fill="#0C3D0A"/>
<path d="M81.8742 10.0556L79.7613 13.0171L77.6484 10.0556L79.7613 7.17981L81.8742 10.0556Z" fill="#0C3D0A"/>
<path d="M107.387 25.2987C106.875 24.6504 106.619 24.0753 106.619 23.5875C106.619 23.2825 106.723 22.9631 106.901 22.7391C107.105 22.4801 107.387 22.3546 107.767 22.3546C107.986 22.3546 108.158 22.3991 108.295 22.4897C108.467 22.6088 108.603 22.8185 108.649 23.0442C108.674 23.1638 108.698 23.2237 108.722 23.2237C108.754 23.2237 108.763 23.1983 108.795 23.0442C108.843 22.7995 108.993 22.5755 109.186 22.4706C109.311 22.4007 109.532 22.3562 109.719 22.3562C109.943 22.3562 110.178 22.4309 110.366 22.5659C110.664 22.7757 110.826 23.1347 110.826 23.5987C110.826 23.9736 110.732 24.2882 110.507 24.6663C110.246 25.1112 109.912 25.5243 109.4 26.0391C109.03 26.414 108.805 26.6428 108.721 26.7223C107.827 25.8436 107.729 25.7388 107.384 25.3003L107.387 25.2987Z" fill="#0C3D0A"/>
<path d="M65.3244 26.5157C65.014 26.5157 64.7812 26.5268 64.5341 26.5602C64.8318 26.1916 64.9411 26.0263 65.033 25.7626C65.1233 25.5148 65.1629 25.1954 65.1629 24.7823C65.1629 24.7219 65.1375 24.6886 65.0979 24.6886C65.0583 24.6886 65.033 24.7156 65.0267 24.7664C64.9871 24.965 64.9554 25.0588 64.8778 25.1732C64.6323 25.5418 64.2506 25.7451 63.8039 25.7451C63.1181 25.7451 62.5796 25.2669 62.5796 24.6552C62.5796 24.0435 63.0912 23.6257 63.8039 23.6257C64.1017 23.6257 64.3408 23.7019 64.6196 23.8958C64.6845 23.9402 64.7099 23.9514 64.7431 23.9514C64.7764 23.9514 64.8081 23.9244 64.8081 23.891C64.8081 23.873 64.7241 23.7925 64.5563 23.6495C64.3044 23.435 64.1413 23.0998 64.1413 22.7852C64.1413 22.2132 64.6845 21.7509 65.3514 21.7509C66.0182 21.7509 66.582 22.2354 66.582 22.8138C66.582 23.1665 66.3619 23.5399 65.9928 23.7988C65.9279 23.8433 65.9089 23.8703 65.9089 23.8973C65.9089 23.9244 65.9421 23.9466 65.9738 23.9466C66.0197 23.9466 66.0388 23.9355 66.1037 23.8799C66.3365 23.6987 66.544 23.6272 66.8814 23.6272C67.6131 23.6272 68.15 24.0626 68.15 24.6568C68.15 25.251 67.6068 25.7578 66.913 25.7578C66.4474 25.7578 66.0514 25.5322 65.8249 25.1414C65.7537 25.0254 65.7347 24.9714 65.6824 24.7664C65.676 24.7172 65.6507 24.6886 65.6174 24.6886C65.5984 24.6886 65.5778 24.7045 65.5715 24.7267C65.5588 24.7537 65.5588 24.776 65.5588 24.9412C65.5588 25.0794 65.5984 25.4369 65.6301 25.5958C65.7014 25.9263 65.8629 26.2075 66.1861 26.5586C65.901 26.5252 65.6364 26.5141 65.3244 26.5141V26.5157Z" fill="#0C3D0A"/>
</svg>
